#!OML:ASF E:/inclinewalkrobotboard/Project1/Captureday1/Session1/subject1.ASF
:FULLY-SPECIFIED
:DEGREES
276
root 0 0 0 -1.9727435906662274 -0.15721593532542144 3.186983566388158
lowerback 10.5963116040736 -1.295298865966151 -4.4602946628130935
upperback 0.6434338901750519 -2.1712576614062167 1.2408365743504026
thorax -5.1055793947088 -0.9523627672284962 4.117460772722276
lowerneck -17.656116577673977 -2.4858629387787703 -2.3349449456201268
upperneck 18.219816934164324 -2.812622309086735 0.12844087430361517
head 8.6439758727413 -1.4815212373066868 0.06992048987577126
rclavicle 3.007737095968171E-15 -9.37884790320635E-16
rhumerus -31.63482671824032 -23.284336180305388 -76.10016217387403
rradius 26.18981233291477
rwrist 2.840861737039943
rhand -18.868213838483666 22.91555397038623
rfingers 7.125020000000023
rthumb 7.434066105280576 -7.007111006322148
lclavicle 1.9660365957776943E-15 -6.201409239562036E-16
lhumerus -24.938166333802563 -5.548244490660655 82.25873595851672
lradius 31.838615591730623
lwrist 7.331215115987513
lhand -28.08978641962068 24.9929677379792
lfingers 7.125020000000001
lthumb -1.4645265713891504 54.983687154257375
rfemur -38.022895321900656 3.202102962175272 18.29645803871218
rtibia 40.41152742296491
rfoot -7.384198656307149 -14.839816816571362
rtoes -3.2654964542906155
lfemur 8.608764746160876 -2.9174587928172775 -29.489048921356748
ltibia 20.04384722397671
lfoot -18.090920792700967 0.25361242152315455
ltoes 2.194509071489314
277
root 0 0 0 -1.5124197542065603 0.3258316712497984 3.147167140203972
lowerback 10.241640165173816 -1.4697661021751127 -4.741669810468112
upperback 0.5041711563005904 -2.415666443714219 1.346949974356285
thorax -5.043387163147549 -1.0707478627597318 4.413599267045889
lowerneck -17.397577588735206 -2.4752417531627953 -2.131865375728499
upperneck 19.75286572007877 -2.8216359000013784 -0.14628222232486543
head 9.14548980025293 -1.4772573405016682 -0.06152059855398184
rclavicle 4.110095346690186E-15 -1.1342968591647265E-15
rhumerus -32.06521088348505 -23.90236063068818 -75.96924678840223
rradius 25.663861192225255
rwrist 3.1620826827679656
rhand -18.8350262850038 22.747209840863707
rfingers 7.1250200000000214
rthumb 7.467364676974239 -7.178646454874293
lclavicle 3.3069904338017345E-15 -7.552484675488782E-16
lhumerus -24.18454449830802 -5.6387760193244505 81.92379851311674
lradius 32.048602164795426
lwrist 7.461810827032677
lhand -28.126108625278363 25.099459792243575
lfingers 7.125020000000002
lthumb -1.5025127656044184 55.092113263922094
rfemur -35.12546163973809 6.430099878956863 19.298447007720586
rtibia 23.836587479877487
rfoot -8.795506724866005 -15.793175838177099
rtoes -4.376165397675192
lfemur 10.528611058544438 -3.1290623996802456 -29.726041281513275
ltibia 19.616998804293978
lfoot -17.87491617033939 -0.38613660444090625
ltoes 2.2269642239130043
278
root 0 0 0 -1.4408781052039836 0.4454334347534785 2.937814966582962
lowerback 10.182272770165316 -1.5046663976590526 -4.633660755775183
upperback 0.4322977062785138 -2.4447567692940284 1.41923997001397
thorax -5.085410716663768 -1.0867815078877079 4.431084089944926
lowerneck -17.33589013641849 -2.4627090636059554 -2.021385152549785
upperneck 20.230397654204673 -2.797667704365259 -0.35013957871596335
head 9.300810174280869 -1.4785735797628916 -0.14749542176428215
rclavicle 3.336933355654671E-15 -9.30919772226133E-16
rhumerus -32.464665217592994 -24.51976747949036 -75.76172230020785
rradius 25.283999347093406
rwrist 3.392269547508376
rhand -18.85566592954833 22.50083060648145
rfingers 7.12502000000002
rthumb 7.4472395406696 -7.433177892565286
lclavicle 2.503564839635408E-15 -5.252564178727989E-16
lhumerus -24.22871817099912 -5.324902280814769 81.71815403092057
lradius 31.84470057710362
lwrist 7.404855404818582
lhand -28.09818326422731 25.405730280729035
lfingers 7.125020000000003
lthumb -1.4754954431260607 55.396957116883186
rfemur -30.009206965919525 8.006482368731444 19.49824872323015
rtibia 14.422138059220222
rfoot -8.040651754307213 -14.091442397774756
rtoes -4.782672265773342
lfemur 12.864726221273429 -3.3971384817623194 -29.602103091042764
ltibia 20.056913432505816
lfoot -16.123513628459975 -2.275064701311319
ltoes 0.5987693118132853
279
root 0 0 0 -1.4455855364865997 0.4827004212764452 2.347242123528637
lowerback 10.244977736719898 -1.5467771754689075 -4.196368119434274
upperback 0.40642484486085795 -2.439086576315561 1.5929635033617426
thorax -5.145126688171897 -1.0923291203617063 4.366829808433131
lowerneck -17.378605640194053 -2.429751730733777 -1.9345262695404788
upperneck 20.16310469812172 -2.746542057497167 -0.47887851943291193
head 9.287013160279741 -1.4630638482860574 -0.19926105808058986
rclavicle 2.4728480475036223E-15 -1.2452252271350885E-15
rhumerus -32.77125540560882 -25.107947734451134 -75.55037906070326
rradius 24.857053995762897
rwrist 3.7623694855828544
rhand -18.840469901303347 22.334942815846905
rfingers 7.125020000000018
rthumb 7.46166711072891 -7.606166301104945
lclavicle 1.5429830425069908E-15 -7.5824948959355E-16
lhumerus -24.7168337044531 -4.806868611720742 81.60843019759398
lradius 31.476095078043898
lwrist 7.256809672272629
lhand -28.008439743111452 25.787974657364746
lfingers 7.125020000000005
lthumb -1.3876920292281394 55.775649384222554
rfemur -27.52108171091894 7.321702174773803 19.310131294068807
rtibia 17.06715553044276
rfoot -6.579730904956392 -11.755196835237602
rtoes -3.5492766851341457
lfemur 15.610383070833489 -3.5409938605078555 -29.071187875181792
ltibia 21.68821196876306
lfoot -12.151932093318557 -5.550704265016579
ltoes -2.974257253609032
280
root 0 0 0 -1.4863002055368235 0.5779712454404642 0.7027646874935294
lowerback 10.450665436349123 -1.6771977372172007 -2.9882521773341812
upperback 0.39095083024333666 -2.4382367578962203 2.071566804189093
thorax -5.271895059823112 -1.1168938436619276 4.189543169182041
lowerneck -17.45601577384012 -2.3677539162255816 -1.7655833807754844
upperneck 19.62402889037058 -2.665720285178338 -0.6182892399203193
head 9.124148441074832 -1.4286808978653962 -0.2610565561798949
rclavicle 2.1836661848269805E-15 -1.732813974987944E-15
rhumerus -32.9844795510961 -25.559729068343565 -75.40516090804569
rradius 24.38879109556558
rwrist 4.181066141547363
rhand -18.778463238260724 22.265797895939624
rfingers 7.125020000000017
rthumb 7.521720486819707 -7.676046567425342
lclavicle 1.1554848088313384E-15 -1.141858489181144E-15
lhumerus -25.677711033916747 -4.204594589620622 81.72053734114749
lradius 31.0498722629057
lwrist 7.109208594277664
lhand -27.89886401442164 25.83730041939967
lfingers 7.125020000000007
lthumb -1.2813113996976986 55.82166877124739
rfemur -23.45725108991667 5.328497277937172 20.927609419877008
rtibia 27.64347206267722
rfoot -5.830779313742949 -7.517565048043689
rtoes 2.153377657662941
lfemur 16.643187841178996 -3.7482034637011012 -27.011939228791586
ltibia 28.064483205884233
lfoot -4.083232540866321 -10.091269842158889
ltoes -9.514040953413566
281
root 0 0 0 -1.7673658984338585 0.6672966518374528 -2.1041338479079403
lowerback 10.686829133267613 -1.8558988972251238 -0.8299431913217503
upperback 0.502064558766296 -2.367514691594625 2.886610543922841
thorax -5.296302946043345 -1.125531112657574 3.8236249602987216
lowerneck -17.3264899871291 -2.318117985276581 -1.5561112339417158
upperneck 19.52723755107886 -2.609385621220111 -0.7661813616620818
head 9.058709121001305 -1.4029580022950607 -0.3391900243541635
rclavicle 2.2063251372356904E-15 -2.5328342259584232E-15
rhumerus -32.97738303403414 -25.695212078710863 -75.34693485817509
rradius 24.11056590596543
rwrist 4.4746082958184195
rhand -18.691508260454516 22.294659986317992
rfingers 7.125020000000017
rthumb 7.605985166790978 -7.6393550151077605
lclavicle 9.59221051759251E-16 -1.930981788075704E-15
lhumerus -28.041415012655243 -3.232110550044881 82.36717518290946
lradius 30.36473741130009
lwrist 6.966473749014755
lhand -27.677003133874653 25.22762534208901
lfingers 7.125020000000014
lthumb -1.0684732486324835 55.20335644625419
rfemur -20.72647736328936 4.660629979133139 22.890374685142394
rtibia 33.46337439685893
rfoot -6.199727689928258 -5.142278969252093
rtoes 7.467513078659141
lfemur 10.714577013271121 -2.711981909883133 -20.560449476903717
ltibia 50.45132050909437
lfoot 12.081117913938467 -18.278541119301604
ltoes -12.92836916658607
